<svg xmlns="http://www.w3.org/2000/svg" viewBox="0 0 100 100">
  <defs>
    <clipPath id="ballClip">
      <circle cx="50" cy="50" r="46"/>
    </clipPath>
    <radialGradient id="g" cx="38%" cy="32%" r="65%">
      <stop offset="0%" stop-color="#ffffff"/>
      <stop offset="100%" stop-color="#d0d0d0"/>
    </radialGradient>
  </defs>
  <!-- Ball -->
  <circle cx="50" cy="50" r="46" fill="url(#g)" stroke="#111" stroke-width="4"/>
  <!-- Black patches — classic Telstar pentagon pattern -->
  <path d="M50 22 L63 31 L58 47 L42 47 L37 31 Z" fill="#111" clip-path="url(#ballClip)"/>
  <path d="M63 31 L77 24 L83 38 L75 51 L58 47 Z" fill="#111" clip-path="url(#ballClip)"/>
  <path d="M75 51 L85 58 L80 73 L66 75 L60 62 Z" fill="#111" clip-path="url(#ballClip)"/>
  <path d="M60 62 L66 75 L56 84 L44 82 L42 70 Z" fill="#111" clip-path="url(#ballClip)"/>
  <path d="M42 70 L44 82 L32 86 L22 78 L26 64 Z" fill="#111" clip-path="url(#ballClip)"/>
  <path d="M26 64 L22 78 L10 70 L10 55 L24 51 Z" fill="#111" clip-path="url(#ballClip)"/>
  <path d="M24 51 L10 55 L14 40 L28 32 L37 31 Z" fill="#111" clip-path="url(#ballClip)"/>
</svg>
